<svg xmlns="http://www.w3.org/2000/svg" version="1.1" xmlns:xlink="http://www.w3.org/1999/xlink" xmlns:svgjs="http://svgjs.dev/svgjs" width="1440" height="560" preserveAspectRatio="none" viewBox="0 0 1440 560"><g mask="url(&quot;#SvgjsMask1001&quot;)" fill="none"><rect width="1440" height="560" x="0" y="0" fill="rgba(255, 255, 255, 1)"></rect><path d="M40.34 140C40.34 122.18 7.21 125.99 0 100.98C-12.96 55.99 -29.33 21.16 0 0C40.67 -29.33 70 0 140 0C210 0 210 0 280 0C350 0 350 0 420 0C490 0 490 0 560 0C630 0 630 0 700 0C770 0 770 0 840 0C910 0 910 0 980 0C1018.57 0 1029.03 -19.33 1057.14 0C1099.03 28.8 1089.01 96.25 1120 96.25C1150.63 96.25 1139.23 28.3 1180.39 0C1209.23 -19.83 1220.2 0 1260 0C1330 0 1330 0 1400 0C1470 0 1497.5 -27.5 1540 0C1567.5 17.79 1565.57 62.89 1540 90.59C1500.95 132.89 1410.77 118.55 1410.77 140C1410.77 160.76 1503.79 135.77 1540 175C1568.4 205.77 1540 227.5 1540 280C1540 350 1540 350 1540 420C1540 490 1571.72 521.72 1540 560C1513.72 591.72 1480.56 565.47 1424 560C1410.56 558.7 1411.61 546.45 1400 546.45C1390.28 546.45 1392.51 558.92 1381.33 560C1322.51 565.69 1320.66 560 1260 560C1190 560 1190 560 1120 560C1050 560 1050 560 980 560C910 560 910 560 840 560C805 560 802.85 568.68 770 560C732.85 550.19 737.57 534 700 523.02C632.57 503.3 619.1 486.35 560 498.6C529.87 504.84 550.69 547.22 521.54 560C480.69 577.92 470.77 560 420 560C350 560 350 560 280 560C238.69 560 215.45 585.88 197.38 560C166.58 515.88 202.28 484.18 182.26 420C173.59 392.22 167.41 379.42 140 376.08C76.28 368.32 38.22 424.03 0 397.8C-31.78 375.99 0 338.9 0 280C0 223.83 -14.05 216.43 0 167.67C6.12 146.43 40.34 155.53 40.34 140" stroke="rgba(211, 211, 211, 1)" stroke-width="2"></path><path d="M420 96.92C394.08 101.9 381.82 119.74 381.82 140C381.82 157.75 399.87 157.78 420 172.94C488.96 224.87 510.88 283.29 560 274.17C599.6 266.82 597.44 201.73 597.44 140C597.44 117.51 583.57 111.46 560 105.74C494.85 89.92 483.17 84.77 420 96.92" stroke="rgba(211, 211, 211, 1)" stroke-width="2"></path><path d="M840 75.38C832.73 75.38 827.83 109.08 827.83 140C827.83 149.63 833.22 156.47 840 156.47C847.87 156.47 857.14 150.63 857.14 140C857.14 110.09 847.39 75.38 840 75.38" stroke="rgba(211, 211, 211, 1)" stroke-width="2"></path><path d="M1400 154.74C1367.6 154.74 1308.46 231.47 1308.46 280C1308.46 310.4 1358.76 312.6 1400 312.6C1417.9 312.6 1426.74 299.55 1426.74 280C1426.74 220.62 1426.74 154.74 1400 154.74" stroke="rgba(211, 211, 211, 1)" stroke-width="2"></path><path d="M1260 346.32C1240.26 346.32 1208.15 389.15 1208.15 420C1208.15 440.27 1237.18 448.57 1260 448.57C1273.71 448.57 1281.21 436.21 1281.21 420C1281.21 385.08 1276.79 346.32 1260 346.32" stroke="rgba(211, 211, 211, 1)" stroke-width="2"></path><path d="M0 485C14.43 485 52.5 536.17 52.5 560C52.5 573.67 10.81 575.44 0 560C-15.44 537.94 -11.82 485 0 485" stroke="rgba(211, 211, 211, 1)" stroke-width="2"></path><path d="M99.66 140C99.66 95.99 37.91 96.86 0 43.61C-11.92 26.86 -16.63 5.18 0 0C53.37 -16.63 70 0 140 0C210 0 210 0 280 0C350 0 350 0 420 0C490 0 490 0 560 0C630 0 630 0 700 0C750.32 0 784.64 -29.04 800.63 0C823.19 40.96 765.82 75.52 777.1 140C785.51 188.07 801.1 190.95 840 225.1C880.83 260.95 918.49 237.02 936.55 280C959.44 334.47 908.63 356.37 921.89 420C930.35 460.59 942.1 482.49 980 488.44C1041.16 498.04 1052.59 443.51 1120 451.11C1192.59 459.29 1193.45 480.52 1260 520C1285.23 534.96 1303.56 548.48 1303.56 560C1303.56 568.48 1281.78 560 1260 560C1190 560 1190 560 1120 560C1050 560 1050 560 980 560C932.64 560 928.63 571.35 885.29 560C858.63 553.02 865.32 537.41 840 523.33C772.68 485.9 773.2 479.5 700 456.98C633.2 436.43 613.56 411.75 560 437.19C505.1 463.26 531.85 517.22 483.08 560C461.85 578.62 451.54 560 420 560C350 560 350 560 280 560C267.38 560 257.17 570.69 254.75 560C241.32 500.69 239.35 486.65 248.3 420C251.97 392.65 261.46 393.86 280 372C320.82 323.86 320.88 323 367.03 280C390.88 257.78 393.64 241.57 420 241.57C445.91 241.57 449.53 256.88 471.58 280C519.53 330.29 513.9 388.39 560 388.39C609.02 388.39 641.83 343.53 661.82 280C680.9 219.34 667.3 200.57 638.14 140C616.39 94.82 604.64 95.69 560 68.51C495.57 29.28 479.63 -9.36 420 7.18C350.76 26.39 359.52 72.33 302.27 140C289.52 155.07 292.84 157.68 280 172.67C232.91 227.68 234.34 230.02 182.42 280C164.34 297.41 163.23 297.89 140 307.45C72.02 335.45 46.42 364.22 0 355.12C-23.58 350.5 0 317.56 0 280C0 244.18 -18.54 234.42 0 208.37C31.29 164.42 99.66 178.37 99.66 140" stroke="rgba(211, 211, 211, 1)" stroke-width="2"></path><path d="M928.57 140C924.54 72.77 942.55 63.83 966 0C968.27 -6.17 973 0 980 0C982.86 0 984.37 -2.46 985.71 0C1022.55 67.54 1057.97 74.05 1056.36 140C1055.12 190.71 1013.92 233.33 980 233.33C950.03 233.33 931.54 189.44 928.57 140" stroke="rgba(211, 211, 211, 1)" stroke-width="2"></path><path d="M1156.21 140C1195.71 66.52 1200.31 65.7 1249.02 0C1252.2 -4.3 1254.51 0 1260 0C1330 0 1330 0 1400 0C1470 0 1485.29 -15.29 1540 0C1555.29 4.27 1554.87 30.95 1540 39.12C1484.87 69.38 1460.89 44.32 1400 76.86C1366.49 94.76 1376.99 109.58 1351.21 140C1306.99 192.17 1313.8 203.01 1260 242.03C1217.28 273.01 1200.49 250.39 1158.18 280C1130.49 299.38 1141.86 340 1120 340C1094.77 340 1064 307.2 1064 280C1064 257.2 1101.89 267.5 1120 240C1147.99 197.5 1131.2 186.52 1156.21 140" stroke="rgba(211, 211, 211, 1)" stroke-width="2"></path><path d="M1466.07 280C1500.5 243.34 1518 211.46 1540 211.46C1554.96 211.46 1540 245.73 1540 280C1540 340.92 1550.24 346.24 1540 401.85C1537.35 416.24 1527.55 411.6 1514.21 420C1457.55 455.68 1452.41 490 1400 490C1362.42 490 1334.24 453.66 1334.24 420C1334.24 388.93 1369.7 392.73 1400 360.55C1435.61 322.73 1430.5 317.88 1466.07 280" stroke="rgba(211, 211, 211, 1)" stroke-width="2"></path><path d="M1524 560C1524 540.42 1535.91 509.09 1540 509.09C1543.91 509.09 1546.09 540.63 1540 560C1538.09 566.09 1524 565.87 1524 560" stroke="rgba(211, 211, 211, 1)" stroke-width="2"></path><path d="M140 77.78C98.89 77.78 52.5 22.26 52.5 0C52.5 -16.63 96.25 0 140 0C173.33 0 206.67 -15.33 206.67 0C206.67 23.56 175.97 77.78 140 77.78" stroke="rgba(211, 211, 211, 1)" stroke-width="2"></path><path d="M560 31.28C530.84 9.29 493.18 8.21 493.18 0C493.18 -7.43 526.59 0 560 0C630 0 630 0 700 0C722.97 0 742.7 -17.17 745.94 0C755.89 52.83 741.88 71.57 726.38 140C718.91 172.95 712.05 202.76 700 202.76C688.28 202.76 699.24 164.98 678.84 140C629.24 79.24 623.67 79.29 560 31.28" stroke="rgba(211, 211, 211, 1)" stroke-width="2"></path><path d="M1216.55 140C1216.55 109.89 1239.22 75.38 1260 75.38C1280.03 75.38 1298.18 109.56 1298.18 140C1298.18 163.23 1279.78 182.71 1260 182.71C1238.96 182.71 1216.55 163.56 1216.55 140" stroke="rgba(211, 211, 211, 1)" stroke-width="2"></path><path d="M1400 8.24C1390.7 8.24 1382.5 2.16 1382.5 0C1382.5 -1.96 1391.25 0 1400 0C1423.34 0 1446.67 -2.04 1446.67 0C1446.67 2.08 1422.79 8.24 1400 8.24" stroke="rgba(211, 211, 211, 1)" stroke-width="2"></path><path d="M0 249.07C28.6 249.07 78.24 264.21 78.24 280C78.24 295.9 28.29 312.44 0 312.44C-10.83 312.44 0 296.22 0 280C0 264.53 -10.52 249.07 0 249.07" stroke="rgba(211, 211, 211, 1)" stroke-width="2"></path><path d="M1505.39 280C1505.39 261.54 1529.7 247.92 1540 247.92C1547 247.92 1540 263.96 1540 280C1540 308.52 1547.98 337.04 1540 337.04C1530.67 337.04 1505.39 306.1 1505.39 280" stroke="rgba(211, 211, 211, 1)" stroke-width="2"></path><path d="M790.59 420C790.59 389.62 822.43 343.64 840 343.64C855.06 343.64 855.85 383.7 855.85 420C855.85 431.88 850.56 440 840 440C817.93 440 790.59 437.8 790.59 420" stroke="rgba(211, 211, 211, 1)" stroke-width="2"></path><path d="M1387.27 420C1387.27 413.99 1392.9 408.49 1400 408.49C1410.32 408.49 1422.11 413.86 1422.11 420C1422.11 426.39 1410.15 433.55 1400 433.55C1392.73 433.55 1387.27 426.52 1387.27 420" stroke="rgba(211, 211, 211, 1)" stroke-width="2"></path><path d="M345.33 560C345.33 518.92 393.51 435.56 420 435.56C443.15 435.56 444.62 507.89 444.62 560C444.62 570.11 432.31 560 420 560C382.66 560 345.33 581.14 345.33 560" stroke="rgba(211, 211, 211, 1)" stroke-width="2"></path><path d="M1036 560C1036 557.07 1078.68 548.33 1120 548.33C1135.68 548.33 1150 556.98 1150 560C1150 562.81 1135 560 1120 560C1078 560 1036 562.9 1036 560" stroke="rgba(211, 211, 211, 1)" stroke-width="2"></path></g><defs><mask id="SvgjsMask1001"><rect width="1440" height="560" fill="#ffffff"></rect></mask></defs></svg>